<svg width="151" height="24" viewBox="0 0 151 24" fill="none" xmlns="http://www.w3.org/2000/svg">
<path d="M24 23C24 23.5523 23.5523 24 23 24H1C0.447716 24 0 23.5523 0 23V1C0 0.447716 0.447715 0 1 0H19.5515C19.7106 0 19.8632 0.0632141 19.9757 0.175736L23.8243 4.02426C23.9368 4.13679 24 4.2894 24 4.44853V23Z" fill="#13171B"/>
<path d="M4.23987 19.744L19.7439 4.24001" stroke="white" stroke-width="3"/>
<path opacity="0.1" d="M5.59987 21.2C5.59987 21.2 5.19993 18 6.39993 16.4C7.59993 14.8 8.72372 16.0762 10.7999 14C11.773 13.027 11.8159 10.984 13.1999 9.6C14.4661 8.33379 15.5013 9.04578 16.7999 8C18.5317 6.60544 18 3.2 18 3.2" stroke="black" stroke-width="0.4"/>
<path d="M150.441 20.4052H147.371V10.3974L141.969 19.9013C141.836 20.1434 141.648 20.327 141.406 20.452C141.172 20.577 140.918 20.6395 140.645 20.6395C140.379 20.6395 140.129 20.577 139.895 20.452C139.668 20.327 139.488 20.1434 139.355 19.9013L133.93 10.3974V20.4052H130.883V4.90126C130.883 4.54969 130.984 4.23719 131.188 3.96376C131.398 3.69032 131.672 3.50673 132.008 3.41298C132.172 3.37391 132.336 3.36219 132.5 3.37782C132.664 3.38563 132.82 3.42079 132.969 3.48329C133.125 3.53798 133.266 3.62001 133.391 3.72938C133.516 3.83094 133.621 3.95594 133.707 4.10438L140.645 16.163L147.582 4.10438C147.762 3.80751 148.008 3.59657 148.32 3.47157C148.641 3.34657 148.973 3.32704 149.316 3.41298C149.645 3.50673 149.914 3.69032 150.125 3.96376C150.336 4.23719 150.441 4.54969 150.441 4.90126V20.4052Z" fill="#13171B"/>
<path d="M128.645 20.4052H114.746C114.528 20.4052 114.324 20.3661 114.137 20.288C113.949 20.2099 113.785 20.1044 113.645 19.9716C113.512 19.8309 113.406 19.6669 113.328 19.4794C113.25 19.2919 113.211 19.0888 113.211 18.87V3.60048H116.258V17.3583H128.645V20.4052Z" fill="#13171B"/>
<path d="M110.972 20.4052H97.0737C96.855 20.4052 96.6519 20.3661 96.4644 20.288C96.2769 20.2099 96.1128 20.1044 95.9722 19.9716C95.8394 19.8309 95.7339 19.6669 95.6558 19.4794C95.5776 19.2919 95.5386 19.0888 95.5386 18.87V3.60048H98.5854V17.3583H110.972V20.4052Z" fill="#13171B"/>
<path d="M91.2146 13.538H81.5935V10.4677H91.2146V13.538ZM92.5857 20.4052H81.5935C81.1716 20.4052 80.7107 20.3309 80.2107 20.1825C79.7107 20.0341 79.2458 19.7919 78.8162 19.4559C78.3943 19.1122 78.0388 18.6708 77.7498 18.1317C77.4685 17.5849 77.3279 16.9169 77.3279 16.1278V5.13564C77.3279 4.9247 77.3669 4.72548 77.4451 4.53798C77.5232 4.35048 77.6287 4.18642 77.7615 4.04579C77.9021 3.90517 78.0662 3.79579 78.2537 3.71767C78.4412 3.63954 78.6443 3.60048 78.863 3.60048H92.5857V6.64735H80.3748V16.1278C80.3748 16.5263 80.4802 16.8309 80.6912 17.0419C80.9021 17.2528 81.2107 17.3583 81.6169 17.3583H92.5857V20.4052Z" fill="#13171B"/>
<path d="M74.7848 10.6317C74.7848 11.327 74.6989 11.9481 74.527 12.495C74.3551 13.0419 74.1207 13.5263 73.8239 13.9481C73.5348 14.3622 73.1989 14.7177 72.816 15.0145C72.4332 15.3114 72.0309 15.5536 71.609 15.7411C71.1949 15.9286 70.7731 16.0653 70.3434 16.1513C69.9215 16.2372 69.5231 16.2802 69.1481 16.2802H62.2574V13.2333H69.1481C69.5387 13.202 69.8903 13.1239 70.2028 12.9989C70.5231 12.8661 70.7965 12.6903 71.0231 12.4716C71.2496 12.2528 71.4254 11.9911 71.5504 11.6864C71.6754 11.3739 71.7379 11.0224 71.7379 10.6317V9.24892C71.6989 8.8661 71.6168 8.51454 71.4918 8.19423C71.3668 7.87392 71.1949 7.60048 70.9762 7.37392C70.7653 7.14735 70.5074 6.97157 70.2028 6.84657C69.8981 6.71376 69.5465 6.64735 69.1481 6.64735H62.2809C61.8746 6.64735 61.566 6.75282 61.3551 6.96376C61.1442 7.1747 61.0387 7.47939 61.0387 7.87782V20.4052H57.9918V7.87782C57.9918 7.09657 58.1324 6.43251 58.4137 5.88564C58.7028 5.33876 59.0582 4.89735 59.4801 4.56142C59.9098 4.22548 60.3746 3.98329 60.8746 3.83485C61.3746 3.6786 61.8356 3.60048 62.2574 3.60048H69.1481C69.8356 3.60048 70.4528 3.69032 70.9996 3.87001C71.5465 4.04189 72.027 4.27626 72.441 4.57314C72.8629 4.8622 73.2184 5.19814 73.5074 5.58095C73.8043 5.96376 74.0465 6.3661 74.234 6.78798C74.4293 7.20204 74.5699 7.62392 74.6559 8.0536C74.7418 8.47548 74.7848 8.87392 74.7848 9.24892V10.6317Z" fill="#13171B"/>
<path d="M54.4762 20.4052H51.4293V3.60048H54.4762V20.4052Z" fill="#13171B"/>
<path d="M48.793 10.6317C48.793 11.327 48.707 11.9481 48.5352 12.495C48.3633 13.0419 48.1289 13.5263 47.832 13.9481C47.543 14.3622 47.207 14.7177 46.8242 15.0145C46.4414 15.3114 46.0391 15.5536 45.6172 15.7411C45.2031 15.9286 44.7812 16.0653 44.3516 16.1513C43.9297 16.2372 43.5312 16.2802 43.1562 16.2802H36.2656V13.2333H43.1562C43.5469 13.202 43.8984 13.1239 44.2109 12.9989C44.5312 12.8661 44.8047 12.6903 45.0312 12.4716C45.2578 12.2528 45.4336 11.9911 45.5586 11.6864C45.6836 11.3739 45.7461 11.0224 45.7461 10.6317V9.24892C45.707 8.8661 45.625 8.51454 45.5 8.19423C45.375 7.87392 45.2031 7.60048 44.9844 7.37392C44.7734 7.14735 44.5156 6.97157 44.2109 6.84657C43.9062 6.71376 43.5547 6.64735 43.1562 6.64735H36.2891C35.8828 6.64735 35.5742 6.75282 35.3633 6.96376C35.1523 7.1747 35.0469 7.47939 35.0469 7.87782V20.4052H32V7.87782C32 7.09657 32.1406 6.43251 32.4219 5.88564C32.7109 5.33876 33.0664 4.89735 33.4883 4.56142C33.918 4.22548 34.3828 3.98329 34.8828 3.83485C35.3828 3.6786 35.8438 3.60048 36.2656 3.60048H43.1562C43.8438 3.60048 44.4609 3.69032 45.0078 3.87001C45.5547 4.04189 46.0352 4.27626 46.4492 4.57314C46.8711 4.8622 47.2266 5.19814 47.5156 5.58095C47.8125 5.96376 48.0547 6.3661 48.2422 6.78798C48.4375 7.20204 48.5781 7.62392 48.6641 8.0536C48.75 8.47548 48.793 8.87392 48.793 9.24892V10.6317Z" fill="#13171B"/>
</svg>
